<svg fill="none"
    xmlns="http://www.w3.org/2000/svg">

    <path fill-rule="evenodd" clip-rule="evenodd"
        d="M39.1357 3.83344H47.3644C52.5037 3.83344 56.4249 5.48697 56.4249 10.92C56.4249 16.353 52.5037 17.977 47.3644 18.0065H44.6314V24.5025H39.1357V3.83344ZM50.7807 10.92C50.7807 9.05977 49.2954 8.55781 47.6318 8.55781H44.6314V13.2822H47.6318C49.2954 13.2822 50.7807 12.7802 50.7807 10.92ZM68.5524 10.3294H73.6025V24.5025H69.1465V22.8785C67.9582 24.1482 66.5026 24.9454 64.6014 24.9454C60.6801 24.9454 58.8977 22.3175 58.8977 19.1286V10.3294H63.9479V18.4494C63.9479 19.9553 64.8688 20.664 66.1164 20.664C67.2453 20.664 68.1068 19.9849 68.5524 19.4238V10.3294ZM78.2736 6.34326L83.3237 5.16217V10.3294H87.1855V14.4633H83.3237V19.0695C83.3237 20.1916 83.9178 20.8116 85.1952 20.8116C86.027 20.8116 86.7102 20.723 87.4826 20.4573V24.3549C86.3537 24.7388 85.0764 24.9454 83.6207 24.9454C80.858 24.9454 78.2736 23.8234 78.2736 20.0734V14.4633H76.0159V10.3294H78.2736V6.34326ZM95.2729 24.5025H90.2228V10.3294H95.2729V24.5025ZM95.6294 5.54602C95.6294 7.49482 94.2926 8.32159 92.7478 8.32159C91.2328 8.32159 89.8663 7.49482 89.8663 5.54602C89.8663 3.62675 91.2328 2.79999 92.7478 2.79999C94.2926 2.79999 95.6294 3.62675 95.6294 5.54602ZM103.301 11.9534C104.489 10.6838 105.945 9.88653 107.846 9.88653C111.767 9.88653 113.55 12.5145 113.55 15.7034V24.5025H108.499V16.3825C108.499 14.8766 107.579 14.168 106.331 14.168C105.202 14.168 104.341 14.8471 103.895 15.4081V24.5025H98.8448V10.3294H103.301V11.9534ZM116.23 17.416C116.23 12.3964 119.973 9.88653 124.251 9.88653C128.529 9.88653 132.272 12.3964 132.272 17.416C132.272 22.4356 128.529 24.9454 124.251 24.9454C119.973 24.9454 116.23 22.4356 116.23 17.416ZM127.073 17.416C127.073 15.8215 126.331 14.3156 124.251 14.3156C122.172 14.3156 121.429 15.8215 121.429 17.416C121.429 19.0105 122.172 20.5163 124.251 20.5163C126.331 20.5163 127.073 19.0105 127.073 17.416ZM140.151 24.5025H135.101V10.3294H139.557V11.8353C140.3 10.9495 141.904 9.88653 143.954 9.88653C146.093 9.88653 147.4 10.7428 148.172 11.8353C149.331 10.7724 150.846 9.88653 152.717 9.88653C156.995 9.88653 157.975 13.3117 157.975 15.4081V24.5025H152.925V15.851C152.925 14.729 152.182 14.168 151.291 14.168C150.608 14.168 149.836 14.4633 149.212 15.0833V24.5025H144.162V15.851C144.162 14.729 143.419 14.168 142.528 14.168C141.726 14.168 140.805 14.5814 140.151 15.4081V24.5025ZM166.449 24.5025H161.399V10.3294H166.449V24.5025ZM166.805 5.54602C166.805 7.49482 165.468 8.32159 163.924 8.32159C162.409 8.32159 161.042 7.49482 161.042 5.54602C161.042 3.62675 162.409 2.79999 163.924 2.79999C165.468 2.79999 166.805 3.62675 166.805 5.54602ZM169.308 17.7113C169.308 12.1306 173.467 9.85701 177.536 9.85701C179.081 9.85701 180.626 10.2113 181.933 10.8314V15.1129C180.953 14.5518 179.586 14.1385 178.309 14.1385C176.318 14.1385 174.506 14.9948 174.506 17.416C174.506 19.6601 176.289 20.664 178.22 20.664C179.705 20.664 181.101 20.2801 182.081 19.7191V24.0006C180.656 24.5911 178.992 24.9454 177.18 24.9454C173.199 24.9454 169.308 22.7309 169.308 17.7113ZM184.584 14.4042C184.584 10.9495 187.614 9.88653 190.793 9.88653C192.872 9.88653 194.654 10.3885 196.17 11.0972V15.0833C194.922 14.227 192.813 13.5774 191.149 13.5774C190.525 13.5774 189.783 13.6956 189.783 14.2861C189.783 16.2644 197.269 15.1129 197.269 20.3687C197.269 23.912 194.06 24.9454 190.466 24.9454C188.238 24.9454 186.248 24.5025 184.733 23.6462V19.6601C186.307 20.6935 188.505 21.166 190.199 21.166C191.446 21.166 192.07 20.9593 192.07 20.4573C192.07 18.5971 184.584 19.5124 184.584 14.4042Z"
        fill="white" />
    <ellipse cx="13.9771" cy="14" rx="13.9771" ry="14" fill="#ED5051" />
</svg>